<svg width="80" height="17" viewBox="0 0 80 17" fill="none" xmlns="http://www.w3.org/2000/svg">
<path d="M5.43744 17V3.4064H0.09216V0.871998H13.7779V3.4064H8.43264V17H5.43744ZM18.3298 17V0.871998H25.8869C27.8222 0.871998 29.2968 1.256 30.3106 2.024C31.3243 2.77664 31.8312 3.7904 31.8312 5.06528C31.8312 5.92544 31.6315 6.66272 31.2322 7.27712C30.8328 7.87616 30.2952 8.34464 29.6194 8.68256C28.9589 9.00512 28.237 9.1664 27.4536 9.1664L27.8683 8.33696C28.7746 8.33696 29.5886 8.50592 30.3106 8.84384C31.0325 9.1664 31.6008 9.64256 32.0155 10.2723C32.4456 10.9021 32.6606 11.6854 32.6606 12.6224C32.6606 14.0048 32.1307 15.08 31.0709 15.848C30.011 16.616 28.4366 17 26.3477 17H18.3298ZM21.325 14.6499H26.1634C27.2846 14.6499 28.1448 14.4656 28.7438 14.097C29.3429 13.7283 29.6424 13.137 29.6424 12.3229C29.6424 11.5242 29.3429 10.9405 28.7438 10.5718C28.1448 10.1878 27.2846 9.99584 26.1634 9.99584H21.0946V7.6688H25.5643C26.6088 7.6688 27.4075 7.48448 27.9605 7.11584C28.5288 6.7472 28.813 6.19424 28.813 5.45696C28.813 4.70432 28.5288 4.14368 27.9605 3.77504C27.4075 3.4064 26.6088 3.22208 25.5643 3.22208H21.325V14.6499ZM38.1613 17V0.871998H41.1565V17H38.1613ZM45.5418 17L52.7994 0.871998H55.7485L63.0292 17H59.8957L53.6519 2.46176H54.85L48.6292 17H45.5418ZM48.8826 13.2675L49.689 10.9174H58.3981L59.2045 13.2675H48.8826ZM70.3796 17V10.6179L71.0478 12.4611L64.0436 0.871998H67.2462L72.868 10.2032H71.0708L76.7387 0.871998H79.6878L72.6836 12.4611L73.3748 10.6179V17H70.3796Z" fill="black"/>
</svg>
